<mxfile host="65bd71144e">
    <diagram id="Dvd1g2dyz-dxmW04oXj8" name="Strona-1">
        <mxGraphModel dx="737" dy="526" grid="0" gridSize="10" guides="1" tooltips="1" connect="1" arrows="1" fold="1" page="0" pageScale="1" pageWidth="827" pageHeight="1169" math="0" shadow="0">
            <root>
                <mxCell id="0"/>
                <mxCell id="1" parent="0"/>
                <mxCell id="4" value="User" style="swimlane;whiteSpace=wrap;html=1;fillColor=#008a00;fontColor=#ffffff;strokeColor=#005700;fontFamily=Verdana;" parent="1" vertex="1">
                    <mxGeometry x="45" y="39" width="200" height="395" as="geometry"/>
                </mxCell>
                <mxCell id="5" value="id &amp;lt;ObjectId&amp;gt;" style="text;html=1;strokeColor=none;fillColor=none;align=center;verticalAlign=middle;whiteSpace=wrap;rounded=0;fontFamily=Verdana;" parent="4" vertex="1">
                    <mxGeometry x="10" y="30" width="180" height="30" as="geometry"/>
                </mxCell>
                <mxCell id="6" value="name &amp;lt;string&amp;gt;" style="text;html=1;strokeColor=none;fillColor=none;align=center;verticalAlign=middle;whiteSpace=wrap;rounded=0;fontFamily=Verdana;" parent="4" vertex="1">
                    <mxGeometry x="12" y="87" width="180" height="30" as="geometry"/>
                </mxCell>
                <mxCell id="7" value="username &amp;lt;string&amp;gt;" style="text;html=1;strokeColor=none;fillColor=none;align=center;verticalAlign=middle;whiteSpace=wrap;rounded=0;fontFamily=Verdana;" parent="4" vertex="1">
                    <mxGeometry x="12" y="57" width="180" height="30" as="geometry"/>
                </mxCell>
                <mxCell id="8" value="email &amp;lt;string&amp;gt;" style="text;html=1;strokeColor=none;fillColor=none;align=center;verticalAlign=middle;whiteSpace=wrap;rounded=0;fontFamily=Verdana;" parent="4" vertex="1">
                    <mxGeometry x="10" y="119" width="180" height="31" as="geometry"/>
                </mxCell>
                <mxCell id="63" value="password &amp;lt;string&amp;gt;" style="text;html=1;strokeColor=none;fillColor=none;align=center;verticalAlign=middle;whiteSpace=wrap;rounded=0;fontFamily=Verdana;" vertex="1" parent="4">
                    <mxGeometry x="12" y="150" width="180" height="30" as="geometry"/>
                </mxCell>
                <mxCell id="64" value="profileImage &amp;lt;string&amp;gt;" style="text;html=1;strokeColor=none;fillColor=none;align=center;verticalAlign=middle;whiteSpace=wrap;rounded=0;fontFamily=Verdana;" vertex="1" parent="4">
                    <mxGeometry x="12" y="180" width="180" height="30" as="geometry"/>
                </mxCell>
                <mxCell id="79" value="coverImage &amp;lt;string&amp;gt;" style="text;html=1;strokeColor=none;fillColor=none;align=center;verticalAlign=middle;whiteSpace=wrap;rounded=0;fontFamily=Verdana;" vertex="1" parent="4">
                    <mxGeometry x="10" y="210" width="180" height="30" as="geometry"/>
                </mxCell>
                <mxCell id="80" value="description &amp;lt;string&amp;gt;" style="text;html=1;strokeColor=none;fillColor=none;align=center;verticalAlign=middle;whiteSpace=wrap;rounded=0;fontFamily=Verdana;" vertex="1" parent="4">
                    <mxGeometry x="12" y="240" width="180" height="30" as="geometry"/>
                </mxCell>
                <mxCell id="81" value="followers &amp;lt;string[]&amp;gt;" style="text;html=1;strokeColor=none;fillColor=none;align=center;verticalAlign=middle;whiteSpace=wrap;rounded=0;fontFamily=Verdana;" vertex="1" parent="4">
                    <mxGeometry x="10" y="270" width="180" height="30" as="geometry"/>
                </mxCell>
                <mxCell id="82" value="ownFollowers &amp;lt;string[]&amp;gt;" style="text;html=1;strokeColor=none;fillColor=none;align=center;verticalAlign=middle;whiteSpace=wrap;rounded=0;fontFamily=Verdana;" vertex="1" parent="4">
                    <mxGeometry x="10" y="300" width="180" height="30" as="geometry"/>
                </mxCell>
                <mxCell id="83" value="ownFollowers &amp;lt;string[]&amp;gt;" style="text;html=1;strokeColor=none;fillColor=none;align=center;verticalAlign=middle;whiteSpace=wrap;rounded=0;fontFamily=Verdana;" vertex="1" parent="4">
                    <mxGeometry x="10" y="330" width="180" height="30" as="geometry"/>
                </mxCell>
                <mxCell id="84" value="role &amp;lt;string[{}]&amp;gt;" style="text;html=1;strokeColor=none;fillColor=none;align=center;verticalAlign=middle;whiteSpace=wrap;rounded=0;fontFamily=Verdana;" vertex="1" parent="4">
                    <mxGeometry x="12" y="360" width="180" height="30" as="geometry"/>
                </mxCell>
                <mxCell id="12" value="Post" style="swimlane;whiteSpace=wrap;html=1;fillColor=#1ba1e2;fontColor=#ffffff;strokeColor=#006EAF;fontFamily=Verdana;" parent="1" vertex="1">
                    <mxGeometry x="462" y="149" width="200" height="210" as="geometry"/>
                </mxCell>
                <mxCell id="13" value="id &amp;lt;ObjectId&amp;gt;" style="text;html=1;strokeColor=none;fillColor=none;align=center;verticalAlign=middle;whiteSpace=wrap;rounded=0;fontFamily=Verdana;" parent="12" vertex="1">
                    <mxGeometry x="10" y="30" width="180" height="30" as="geometry"/>
                </mxCell>
                <mxCell id="89" value="username &amp;lt;string&amp;gt;" style="text;html=1;strokeColor=none;fillColor=none;align=center;verticalAlign=middle;whiteSpace=wrap;rounded=0;fontFamily=Verdana;" vertex="1" parent="12">
                    <mxGeometry x="10" y="60" width="180" height="30" as="geometry"/>
                </mxCell>
                <mxCell id="90" value="postBody &amp;lt;string&amp;gt;" style="text;html=1;strokeColor=none;fillColor=none;align=center;verticalAlign=middle;whiteSpace=wrap;rounded=0;fontFamily=Verdana;" vertex="1" parent="12">
                    <mxGeometry x="10" y="90" width="180" height="30" as="geometry"/>
                </mxCell>
                <mxCell id="91" value="postImage &amp;lt;string&amp;gt;" style="text;html=1;strokeColor=none;fillColor=none;align=center;verticalAlign=middle;whiteSpace=wrap;rounded=0;fontFamily=Verdana;" vertex="1" parent="12">
                    <mxGeometry x="10" y="120" width="180" height="30" as="geometry"/>
                </mxCell>
                <mxCell id="92" value="createdAt &amp;lt;Date&amp;gt;" style="text;html=1;strokeColor=none;fillColor=none;align=center;verticalAlign=middle;whiteSpace=wrap;rounded=1;glass=1;shadow=0;dashed=1;dashPattern=12 12;fontFamily=Verdana;" vertex="1" parent="12">
                    <mxGeometry x="10" y="150" width="180" height="30" as="geometry"/>
                </mxCell>
                <mxCell id="93" value="idd &amp;lt;string&amp;gt;" style="text;html=1;strokeColor=none;fillColor=none;align=center;verticalAlign=middle;whiteSpace=wrap;rounded=1;glass=1;shadow=0;dashed=1;dashPattern=12 12;fontFamily=Verdana;" vertex="1" parent="12">
                    <mxGeometry x="10" y="177" width="180" height="30" as="geometry"/>
                </mxCell>
                <mxCell id="37" value="Comment" style="swimlane;whiteSpace=wrap;html=1;fillColor=#a20025;fontColor=#ffffff;strokeColor=#6F0000;fontFamily=Verdana;" parent="1" vertex="1">
                    <mxGeometry x="253" y="39" width="200" height="210" as="geometry"/>
                </mxCell>
                <mxCell id="40" value="commentBody &amp;lt;string&amp;gt;" style="text;html=1;strokeColor=none;fillColor=none;align=center;verticalAlign=middle;whiteSpace=wrap;rounded=0;fontFamily=Verdana;" parent="37" vertex="1">
                    <mxGeometry x="10" y="90" width="180" height="30" as="geometry"/>
                </mxCell>
                <mxCell id="46" value="createdAt &amp;lt;Date&amp;gt;" style="text;html=1;strokeColor=none;fillColor=none;align=center;verticalAlign=middle;whiteSpace=wrap;rounded=1;glass=1;shadow=0;dashed=1;dashPattern=12 12;fontFamily=Verdana;" parent="37" vertex="1">
                    <mxGeometry x="10" y="150" width="180" height="30" as="geometry"/>
                </mxCell>
                <mxCell id="47" value="idd &amp;lt;string&amp;gt;" style="text;html=1;strokeColor=none;fillColor=none;align=center;verticalAlign=middle;whiteSpace=wrap;rounded=1;glass=1;shadow=0;dashed=1;dashPattern=12 12;fontFamily=Verdana;" parent="37" vertex="1">
                    <mxGeometry x="10" y="180" width="180" height="30" as="geometry"/>
                </mxCell>
                <mxCell id="85" value="id &amp;lt;ObjectId&amp;gt;" style="text;html=1;strokeColor=none;fillColor=none;align=center;verticalAlign=middle;whiteSpace=wrap;rounded=0;fontFamily=Verdana;" vertex="1" parent="37">
                    <mxGeometry x="10" y="30" width="180" height="30" as="geometry"/>
                </mxCell>
                <mxCell id="86" value="username &amp;lt;string&amp;gt;" style="text;html=1;strokeColor=none;fillColor=none;align=center;verticalAlign=middle;whiteSpace=wrap;rounded=0;fontFamily=Verdana;" vertex="1" parent="37">
                    <mxGeometry x="10" y="60" width="180" height="30" as="geometry"/>
                </mxCell>
                <mxCell id="87" value="commentImage &amp;lt;string&amp;gt;" style="text;html=1;strokeColor=none;fillColor=none;align=center;verticalAlign=middle;whiteSpace=wrap;rounded=0;fontFamily=Verdana;" vertex="1" parent="37">
                    <mxGeometry x="10" y="120" width="180" height="30" as="geometry"/>
                </mxCell>
                <mxCell id="58" value="Role" style="swimlane;whiteSpace=wrap;html=1;fillColor=#e3c800;fontColor=#000000;strokeColor=#B09500;fontFamily=Verdana;" parent="1" vertex="1">
                    <mxGeometry x="253" y="339" width="200" height="95" as="geometry"/>
                </mxCell>
                <mxCell id="59" value="id &amp;lt;ObjectId&amp;gt;" style="text;html=1;strokeColor=none;fillColor=none;align=center;verticalAlign=middle;whiteSpace=wrap;rounded=0;fontFamily=Verdana;" parent="58" vertex="1">
                    <mxGeometry x="10" y="30" width="180" height="30" as="geometry"/>
                </mxCell>
                <mxCell id="60" value="name &amp;lt;string&amp;gt;" style="text;html=1;strokeColor=none;fillColor=none;align=center;verticalAlign=middle;whiteSpace=wrap;rounded=0;fontFamily=Verdana;" parent="58" vertex="1">
                    <mxGeometry x="10" y="60" width="180" height="30" as="geometry"/>
                </mxCell>
            </root>
        </mxGraphModel>
    </diagram>
</mxfile>